<mxfile host="app.diagrams.net" modified="2023-10-24T12:28:21.996Z" agent="Mozilla/5.0 (Macintosh; Intel Mac OS X 10_15_7) AppleWebKit/537.36 (KHTML, like Gecko) Chrome/118.0.0.0 Safari/537.36" etag="uG4sCRERt5rrWswp5Sh0" version="22.0.6" type="github" pages="2">
  <diagram name="DCU-1" id="l3ZqBA-5NZKBSmxzDGHb">
    <mxGraphModel dx="1092" dy="700" grid="1" gridSize="10" guides="1" tooltips="1" connect="1" arrows="1" fold="1" page="1" pageScale="1" pageWidth="827" pageHeight="1169" math="0" shadow="0">
      <root>
        <mxCell id="0" />
        <mxCell id="1" parent="0" />
        <mxCell id="2safi882rtIeYSR7A9-A-1" value="" style="shape=umlActor;verticalLabelPosition=bottom;verticalAlign=top;html=1;" vertex="1" parent="1">
          <mxGeometry x="100" y="270" width="30" height="60" as="geometry" />
        </mxCell>
        <mxCell id="2safi882rtIeYSR7A9-A-3" value="Root" style="shape=umlActor;verticalLabelPosition=bottom;verticalAlign=top;html=1;" vertex="1" parent="1">
          <mxGeometry x="100" y="470" width="30" height="60" as="geometry" />
        </mxCell>
        <mxCell id="2safi882rtIeYSR7A9-A-4" value="" style="endArrow=block;html=1;rounded=0;align=center;verticalAlign=bottom;endFill=0;labelBackgroundColor=none;endSize=8;" edge="1" parent="1" source="2safi882rtIeYSR7A9-A-3" target="2safi882rtIeYSR7A9-A-1">
          <mxGeometry relative="1" as="geometry">
            <mxPoint x="350" y="410" as="sourcePoint" />
            <mxPoint x="510" y="410" as="targetPoint" />
          </mxGeometry>
        </mxCell>
        <mxCell id="2safi882rtIeYSR7A9-A-5" value="" style="resizable=0;html=1;align=center;verticalAlign=top;labelBackgroundColor=none;" connectable="0" vertex="1" parent="2safi882rtIeYSR7A9-A-4">
          <mxGeometry relative="1" as="geometry" />
        </mxCell>
        <mxCell id="2safi882rtIeYSR7A9-A-7" value="Gestionnaire" style="text;html=1;align=center;verticalAlign=middle;resizable=0;points=[];autosize=1;strokeColor=none;fillColor=none;" vertex="1" parent="1">
          <mxGeometry x="25" y="285" width="90" height="30" as="geometry" />
        </mxCell>
        <mxCell id="2safi882rtIeYSR7A9-A-15" value="Gérer Utilisateur" style="ellipse;whiteSpace=wrap;html=1;" vertex="1" parent="1">
          <mxGeometry x="308" y="225" width="106" height="45" as="geometry" />
        </mxCell>
        <mxCell id="2safi882rtIeYSR7A9-A-20" value="" style="endArrow=none;startArrow=none;endFill=0;startFill=0;endSize=8;html=1;verticalAlign=bottom;labelBackgroundColor=none;strokeWidth=1;rounded=0;" edge="1" parent="1" source="2safi882rtIeYSR7A9-A-1" target="2safi882rtIeYSR7A9-A-15">
          <mxGeometry width="160" relative="1" as="geometry">
            <mxPoint x="410" y="260" as="sourcePoint" />
            <mxPoint x="570" y="260" as="targetPoint" />
          </mxGeometry>
        </mxCell>
        <mxCell id="2safi882rtIeYSR7A9-A-21" value="Gérer Population cible" style="ellipse;whiteSpace=wrap;html=1;" vertex="1" parent="1">
          <mxGeometry x="344" y="285" width="106" height="45" as="geometry" />
        </mxCell>
        <mxCell id="2safi882rtIeYSR7A9-A-22" value="" style="endArrow=none;startArrow=none;endFill=0;startFill=0;endSize=8;html=1;verticalAlign=bottom;labelBackgroundColor=none;strokeWidth=1;rounded=0;" edge="1" parent="1" source="2safi882rtIeYSR7A9-A-1" target="2safi882rtIeYSR7A9-A-21">
          <mxGeometry width="160" relative="1" as="geometry">
            <mxPoint x="140" y="310" as="sourcePoint" />
            <mxPoint x="304" y="308" as="targetPoint" />
          </mxGeometry>
        </mxCell>
        <mxCell id="2safi882rtIeYSR7A9-A-23" value="Affecter officier liaison" style="ellipse;whiteSpace=wrap;html=1;" vertex="1" parent="1">
          <mxGeometry x="544" y="380" width="106" height="45" as="geometry" />
        </mxCell>
        <mxCell id="2safi882rtIeYSR7A9-A-29" value="Se connecter" style="ellipse;whiteSpace=wrap;html=1;" vertex="1" parent="1">
          <mxGeometry x="610" y="240" width="106" height="45" as="geometry" />
        </mxCell>
        <mxCell id="2safi882rtIeYSR7A9-A-30" value="&amp;lt;&amp;lt;extend&amp;gt;&amp;gt;" style="html=1;verticalAlign=bottom;labelBackgroundColor=none;endArrow=open;endFill=0;dashed=1;rounded=0;" edge="1" parent="1" source="2safi882rtIeYSR7A9-A-23" target="2safi882rtIeYSR7A9-A-21">
          <mxGeometry x="-0.0793" y="6" width="160" relative="1" as="geometry">
            <mxPoint x="586" y="470" as="sourcePoint" />
            <mxPoint x="746" y="470" as="targetPoint" />
            <mxPoint y="1" as="offset" />
          </mxGeometry>
        </mxCell>
        <mxCell id="2safi882rtIeYSR7A9-A-31" value="&amp;lt;&amp;lt;include&amp;gt;&amp;gt;" style="html=1;verticalAlign=bottom;labelBackgroundColor=none;endArrow=open;endFill=0;dashed=1;rounded=0;" edge="1" parent="1" source="2safi882rtIeYSR7A9-A-21" target="2safi882rtIeYSR7A9-A-29">
          <mxGeometry width="160" relative="1" as="geometry">
            <mxPoint x="470" y="460" as="sourcePoint" />
            <mxPoint x="630" y="460" as="targetPoint" />
          </mxGeometry>
        </mxCell>
        <mxCell id="2safi882rtIeYSR7A9-A-32" value="&amp;lt;&amp;lt;include&amp;gt;&amp;gt;" style="html=1;verticalAlign=bottom;labelBackgroundColor=none;endArrow=open;endFill=0;dashed=1;rounded=0;" edge="1" parent="1" source="2safi882rtIeYSR7A9-A-15" target="2safi882rtIeYSR7A9-A-29">
          <mxGeometry width="160" relative="1" as="geometry">
            <mxPoint x="420" y="297" as="sourcePoint" />
            <mxPoint x="620" y="297" as="targetPoint" />
          </mxGeometry>
        </mxCell>
        <mxCell id="2safi882rtIeYSR7A9-A-37" value="Importation des données" style="ellipse;whiteSpace=wrap;html=1;" vertex="1" parent="1">
          <mxGeometry x="560" y="330" width="122" height="40" as="geometry" />
        </mxCell>
        <mxCell id="2safi882rtIeYSR7A9-A-39" value="&amp;lt;&amp;lt;extend&amp;gt;&amp;gt;" style="html=1;verticalAlign=bottom;labelBackgroundColor=none;endArrow=open;endFill=0;dashed=1;rounded=0;" edge="1" parent="1" source="2safi882rtIeYSR7A9-A-37" target="2safi882rtIeYSR7A9-A-21">
          <mxGeometry x="-0.0793" y="6" width="160" relative="1" as="geometry">
            <mxPoint x="576" y="450" as="sourcePoint" />
            <mxPoint x="490" y="379" as="targetPoint" />
            <mxPoint y="1" as="offset" />
          </mxGeometry>
        </mxCell>
        <mxCell id="2safi882rtIeYSR7A9-A-40" value="Gérer Lieux" style="ellipse;whiteSpace=wrap;html=1;" vertex="1" parent="1">
          <mxGeometry x="210" y="420" width="106" height="45" as="geometry" />
        </mxCell>
        <mxCell id="2safi882rtIeYSR7A9-A-41" value="" style="endArrow=none;startArrow=none;endFill=0;startFill=0;endSize=8;html=1;verticalAlign=bottom;labelBackgroundColor=none;strokeWidth=1;rounded=0;" edge="1" parent="1" source="2safi882rtIeYSR7A9-A-1" target="2safi882rtIeYSR7A9-A-40">
          <mxGeometry width="160" relative="1" as="geometry">
            <mxPoint x="140" y="310" as="sourcePoint" />
            <mxPoint x="304" y="308" as="targetPoint" />
          </mxGeometry>
        </mxCell>
        <mxCell id="2safi882rtIeYSR7A9-A-43" value="Affecter liste service" style="ellipse;whiteSpace=wrap;html=1;" vertex="1" parent="1">
          <mxGeometry x="480" y="420" width="106" height="45" as="geometry" />
        </mxCell>
        <mxCell id="2safi882rtIeYSR7A9-A-44" value="&amp;lt;&amp;lt;extend&amp;gt;&amp;gt;" style="html=1;verticalAlign=bottom;labelBackgroundColor=none;endArrow=open;endFill=0;dashed=1;rounded=0;" edge="1" parent="1" source="2safi882rtIeYSR7A9-A-43" target="2safi882rtIeYSR7A9-A-21">
          <mxGeometry x="-0.0793" y="6" width="160" relative="1" as="geometry">
            <mxPoint x="432" y="460" as="sourcePoint" />
            <mxPoint x="346" y="389" as="targetPoint" />
            <mxPoint y="1" as="offset" />
          </mxGeometry>
        </mxCell>
        <mxCell id="2safi882rtIeYSR7A9-A-45" value="Gérer service" style="ellipse;whiteSpace=wrap;html=1;" vertex="1" parent="1">
          <mxGeometry x="280" y="340" width="106" height="45" as="geometry" />
        </mxCell>
        <mxCell id="2safi882rtIeYSR7A9-A-46" value="" style="endArrow=none;startArrow=none;endFill=0;startFill=0;endSize=8;html=1;verticalAlign=bottom;labelBackgroundColor=none;strokeWidth=1;rounded=0;" edge="1" parent="1" source="2safi882rtIeYSR7A9-A-1" target="2safi882rtIeYSR7A9-A-45">
          <mxGeometry width="160" relative="1" as="geometry">
            <mxPoint x="140" y="314" as="sourcePoint" />
            <mxPoint x="341" y="362" as="targetPoint" />
          </mxGeometry>
        </mxCell>
        <mxCell id="2safi882rtIeYSR7A9-A-48" value="Créer privilège" style="ellipse;whiteSpace=wrap;html=1;" vertex="1" parent="1">
          <mxGeometry x="344" y="485" width="106" height="45" as="geometry" />
        </mxCell>
        <mxCell id="2safi882rtIeYSR7A9-A-49" value="&amp;lt;&amp;lt;extend&amp;gt;&amp;gt;" style="html=1;verticalAlign=bottom;labelBackgroundColor=none;endArrow=open;endFill=0;dashed=1;rounded=0;" edge="1" parent="1" source="2safi882rtIeYSR7A9-A-48" target="2safi882rtIeYSR7A9-A-45">
          <mxGeometry x="-0.0793" y="6" width="160" relative="1" as="geometry">
            <mxPoint x="420" y="470" as="sourcePoint" />
            <mxPoint x="346" y="414" as="targetPoint" />
            <mxPoint y="1" as="offset" />
          </mxGeometry>
        </mxCell>
        <mxCell id="irsKMWYD9HWggmVdlU3C-1" value="Gérer sous-evenement" style="ellipse;whiteSpace=wrap;html=1;" vertex="1" parent="1">
          <mxGeometry x="280" y="100" width="106" height="45" as="geometry" />
        </mxCell>
        <mxCell id="irsKMWYD9HWggmVdlU3C-2" value="" style="endArrow=none;startArrow=none;endFill=0;startFill=0;endSize=8;html=1;verticalAlign=bottom;labelBackgroundColor=none;strokeWidth=1;rounded=0;exitX=1;exitY=0.3333333333333333;exitDx=0;exitDy=0;exitPerimeter=0;" edge="1" parent="1" source="2safi882rtIeYSR7A9-A-1" target="irsKMWYD9HWggmVdlU3C-1">
          <mxGeometry width="160" relative="1" as="geometry">
            <mxPoint x="140" y="225" as="sourcePoint" />
            <mxPoint x="324" y="186" as="targetPoint" />
          </mxGeometry>
        </mxCell>
        <mxCell id="irsKMWYD9HWggmVdlU3C-3" value="Gérer evenement" style="ellipse;whiteSpace=wrap;html=1;" vertex="1" parent="1">
          <mxGeometry x="340" y="160" width="106" height="45" as="geometry" />
        </mxCell>
        <mxCell id="irsKMWYD9HWggmVdlU3C-4" value="" style="endArrow=none;startArrow=none;endFill=0;startFill=0;endSize=8;html=1;verticalAlign=bottom;labelBackgroundColor=none;strokeWidth=1;rounded=0;exitX=1;exitY=0.3333333333333333;exitDx=0;exitDy=0;exitPerimeter=0;" edge="1" parent="1" source="2safi882rtIeYSR7A9-A-1" target="irsKMWYD9HWggmVdlU3C-3">
          <mxGeometry width="160" relative="1" as="geometry">
            <mxPoint x="140" y="300" as="sourcePoint" />
            <mxPoint x="319" y="152" as="targetPoint" />
          </mxGeometry>
        </mxCell>
        <mxCell id="irsKMWYD9HWggmVdlU3C-6" value="Exporter les données" style="ellipse;whiteSpace=wrap;html=1;" vertex="1" parent="1">
          <mxGeometry x="190" y="510" width="106" height="45" as="geometry" />
        </mxCell>
        <mxCell id="irsKMWYD9HWggmVdlU3C-7" value="" style="endArrow=none;startArrow=none;endFill=0;startFill=0;endSize=8;html=1;verticalAlign=bottom;labelBackgroundColor=none;strokeWidth=1;rounded=0;exitX=0.8;exitY=0.933;exitDx=0;exitDy=0;exitPerimeter=0;" edge="1" parent="1" source="2safi882rtIeYSR7A9-A-1" target="irsKMWYD9HWggmVdlU3C-6">
          <mxGeometry width="160" relative="1" as="geometry">
            <mxPoint x="140" y="324" as="sourcePoint" />
            <mxPoint x="252" y="432" as="targetPoint" />
          </mxGeometry>
        </mxCell>
        <mxCell id="irsKMWYD9HWggmVdlU3C-9" value="Envoyer invitation" style="ellipse;whiteSpace=wrap;html=1;" vertex="1" parent="1">
          <mxGeometry x="454" y="60" width="106" height="45" as="geometry" />
        </mxCell>
        <mxCell id="irsKMWYD9HWggmVdlU3C-10" value="&amp;lt;&amp;lt;extend&amp;gt;&amp;gt;" style="html=1;verticalAlign=bottom;labelBackgroundColor=none;endArrow=open;endFill=0;dashed=1;rounded=0;" edge="1" parent="1" source="irsKMWYD9HWggmVdlU3C-9" target="irsKMWYD9HWggmVdlU3C-1">
          <mxGeometry x="-0.0793" y="6" width="160" relative="1" as="geometry">
            <mxPoint x="458" y="200" as="sourcePoint" />
            <mxPoint x="414" y="100" as="targetPoint" />
            <mxPoint y="1" as="offset" />
          </mxGeometry>
        </mxCell>
        <mxCell id="irsKMWYD9HWggmVdlU3C-12" value="Affecter sous-événement population cible" style="ellipse;whiteSpace=wrap;html=1;" vertex="1" parent="1">
          <mxGeometry x="504" y="130" width="116" height="60" as="geometry" />
        </mxCell>
        <mxCell id="irsKMWYD9HWggmVdlU3C-13" value="&amp;lt;&amp;lt;extend&amp;gt;&amp;gt;" style="html=1;verticalAlign=bottom;labelBackgroundColor=none;endArrow=open;endFill=0;dashed=1;rounded=0;" edge="1" parent="1" source="irsKMWYD9HWggmVdlU3C-12" target="irsKMWYD9HWggmVdlU3C-1">
          <mxGeometry x="-0.0793" y="6" width="160" relative="1" as="geometry">
            <mxPoint x="526" y="120" as="sourcePoint" />
            <mxPoint x="446" y="139" as="targetPoint" />
            <mxPoint y="1" as="offset" />
          </mxGeometry>
        </mxCell>
        <mxCell id="irsKMWYD9HWggmVdlU3C-14" value="gérer emplois du temps" style="ellipse;whiteSpace=wrap;html=1;" vertex="1" parent="1">
          <mxGeometry x="120" y="100" width="106" height="45" as="geometry" />
        </mxCell>
        <mxCell id="irsKMWYD9HWggmVdlU3C-15" value="" style="endArrow=none;startArrow=none;endFill=0;startFill=0;endSize=8;html=1;verticalAlign=bottom;labelBackgroundColor=none;strokeWidth=1;rounded=0;exitX=0.5;exitY=0;exitDx=0;exitDy=0;exitPerimeter=0;" edge="1" parent="1" source="2safi882rtIeYSR7A9-A-1" target="irsKMWYD9HWggmVdlU3C-14">
          <mxGeometry width="160" relative="1" as="geometry">
            <mxPoint x="140" y="300" as="sourcePoint" />
            <mxPoint x="319" y="152" as="targetPoint" />
          </mxGeometry>
        </mxCell>
      </root>
    </mxGraphModel>
  </diagram>
  <diagram id="LC8L_AnkPY6zp3M6hMyl" name="Page-2">
    <mxGraphModel dx="1092" dy="700" grid="1" gridSize="10" guides="1" tooltips="1" connect="1" arrows="1" fold="1" page="1" pageScale="1" pageWidth="827" pageHeight="1169" math="0" shadow="0">
      <root>
        <mxCell id="0" />
        <mxCell id="1" parent="0" />
        <mxCell id="xHV0Y_eDEjnt71AxiFM6-1" value="" style="shape=umlActor;verticalLabelPosition=bottom;verticalAlign=top;html=1;" vertex="1" parent="1">
          <mxGeometry x="100" y="270" width="30" height="60" as="geometry" />
        </mxCell>
        <mxCell id="dIymOfAqd8Z1cLGg8AZw-1" value="Gestionnaire" style="text;html=1;align=center;verticalAlign=middle;resizable=0;points=[];autosize=1;strokeColor=none;fillColor=none;" vertex="1" parent="1">
          <mxGeometry x="25" y="285" width="90" height="30" as="geometry" />
        </mxCell>
        <mxCell id="Vz_rZ_m3sSlnc9Wt_4M8-1" value="Gérer Prestataire" style="ellipse;whiteSpace=wrap;html=1;" vertex="1" parent="1">
          <mxGeometry x="308" y="150" width="106" height="45" as="geometry" />
        </mxCell>
        <mxCell id="xe5fgyrwq69Np7yswqrZ-1" value="" style="endArrow=none;startArrow=none;endFill=0;startFill=0;endSize=8;html=1;verticalAlign=bottom;labelBackgroundColor=none;strokeWidth=1;rounded=0;exitX=0.567;exitY=0.167;exitDx=0;exitDy=0;exitPerimeter=0;" edge="1" parent="1" source="xHV0Y_eDEjnt71AxiFM6-1" target="Vz_rZ_m3sSlnc9Wt_4M8-1">
          <mxGeometry width="160" relative="1" as="geometry">
            <mxPoint x="130" y="297" as="sourcePoint" />
            <mxPoint x="314" y="258" as="targetPoint" />
          </mxGeometry>
        </mxCell>
        <mxCell id="xe5fgyrwq69Np7yswqrZ-2" value="Gérer flotte&amp;nbsp;de véhicule" style="ellipse;whiteSpace=wrap;html=1;" vertex="1" parent="1">
          <mxGeometry x="330" y="250" width="106" height="45" as="geometry" />
        </mxCell>
        <mxCell id="xe5fgyrwq69Np7yswqrZ-3" value="" style="endArrow=none;startArrow=none;endFill=0;startFill=0;endSize=8;html=1;verticalAlign=bottom;labelBackgroundColor=none;strokeWidth=1;rounded=0;" edge="1" parent="1" source="xHV0Y_eDEjnt71AxiFM6-1" target="xe5fgyrwq69Np7yswqrZ-2">
          <mxGeometry width="160" relative="1" as="geometry">
            <mxPoint x="127" y="290" as="sourcePoint" />
            <mxPoint x="334" y="199" as="targetPoint" />
          </mxGeometry>
        </mxCell>
        <mxCell id="xe5fgyrwq69Np7yswqrZ-5" value="Affecter Chauffeur" style="ellipse;whiteSpace=wrap;html=1;" vertex="1" parent="1">
          <mxGeometry x="260" y="30" width="106" height="45" as="geometry" />
        </mxCell>
        <mxCell id="I-TsPZ9aq3Y1WVlfevty-1" value="&amp;lt;&amp;lt;extend&amp;gt;&amp;gt;" style="html=1;verticalAlign=bottom;labelBackgroundColor=none;endArrow=open;endFill=0;dashed=1;rounded=0;" edge="1" parent="1" source="xe5fgyrwq69Np7yswqrZ-5" target="Vz_rZ_m3sSlnc9Wt_4M8-1">
          <mxGeometry x="-0.0793" y="6" width="160" relative="1" as="geometry">
            <mxPoint x="554" y="210" as="sourcePoint" />
            <mxPoint x="510" y="110" as="targetPoint" />
            <mxPoint y="1" as="offset" />
          </mxGeometry>
        </mxCell>
        <mxCell id="I-TsPZ9aq3Y1WVlfevty-2" value="" style="shape=umlActor;verticalLabelPosition=bottom;verticalAlign=top;html=1;" vertex="1" parent="1">
          <mxGeometry x="100" y="400" width="30" height="60" as="geometry" />
        </mxCell>
        <mxCell id="I-TsPZ9aq3Y1WVlfevty-3" value="Chauffeur" style="text;html=1;align=center;verticalAlign=middle;resizable=0;points=[];autosize=1;strokeColor=none;fillColor=none;" vertex="1" parent="1">
          <mxGeometry x="25" y="415" width="80" height="30" as="geometry" />
        </mxCell>
        <mxCell id="I-TsPZ9aq3Y1WVlfevty-4" value="Consulter informations course" style="ellipse;whiteSpace=wrap;html=1;" vertex="1" parent="1">
          <mxGeometry x="300" y="440" width="106" height="45" as="geometry" />
        </mxCell>
        <mxCell id="I-TsPZ9aq3Y1WVlfevty-5" value="" style="endArrow=none;startArrow=none;endFill=0;startFill=0;endSize=8;html=1;verticalAlign=bottom;labelBackgroundColor=none;strokeWidth=1;rounded=0;" edge="1" parent="1" source="I-TsPZ9aq3Y1WVlfevty-2" target="I-TsPZ9aq3Y1WVlfevty-4">
          <mxGeometry width="160" relative="1" as="geometry">
            <mxPoint x="160" y="435" as="sourcePoint" />
            <mxPoint x="361" y="415" as="targetPoint" />
          </mxGeometry>
        </mxCell>
        <mxCell id="I-TsPZ9aq3Y1WVlfevty-6" value="Voir course en cours" style="ellipse;whiteSpace=wrap;html=1;" vertex="1" parent="1">
          <mxGeometry x="330" y="320" width="106" height="45" as="geometry" />
        </mxCell>
        <mxCell id="I-TsPZ9aq3Y1WVlfevty-7" value="" style="endArrow=none;startArrow=none;endFill=0;startFill=0;endSize=8;html=1;verticalAlign=bottom;labelBackgroundColor=none;strokeWidth=1;rounded=0;" edge="1" parent="1" source="xHV0Y_eDEjnt71AxiFM6-1" target="I-TsPZ9aq3Y1WVlfevty-6">
          <mxGeometry width="160" relative="1" as="geometry">
            <mxPoint x="140" y="308" as="sourcePoint" />
            <mxPoint x="341" y="288" as="targetPoint" />
          </mxGeometry>
        </mxCell>
      </root>
    </mxGraphModel>
  </diagram>
</mxfile>
